<svg width="86" height="86" viewBox="0 0 86 86" fill="none" xmlns="http://www.w3.org/2000/svg">
<path d="M43 51.7457L37.2571 58.7059V86H48.7429V58.7059L43 51.7457Z" fill="#FAE58B"/>
<path d="M74.8372 72.1162L66.0075 79.6229L48.7429 58.706V49.6323L57.5367 51.1992L74.8372 72.1162Z" fill="#FAE58B"/>
<path d="M59.5467 39.7203L51.7938 44.239L57.5367 51.1991L83.99 55.9364L86 44.4576L59.5467 39.7203Z" fill="#FAE58B"/>
<path d="M77.0626 15.9974L53.768 29.6263L50.717 38.1534L59.5109 39.7203L82.7696 26.0915L77.0626 15.9974Z" fill="#FAE58B"/>
<path d="M62.9925 3.97203L53.8038 29.6263L46.0509 34.1814L43 25.6542L52.1886 0L62.9925 3.97203Z" fill="#FAE58B"/>
<path d="M42.9999 25.6542L39.949 34.1814L32.1961 29.6263L23.0074 3.97203L33.8113 0L42.9999 25.6542Z" fill="#FAE58B"/>
<path d="M32.1961 29.6263L8.93736 15.9974L3.19446 26.0915L26.4532 39.7203L35.247 38.1534L32.1961 29.6263Z" fill="#FAE58B"/>
<path d="M26.4533 39.7203L0 44.4576L2.01002 55.9364L28.4992 51.1991L34.2421 44.239L26.4533 39.7203Z" fill="#FAE58B"/>
<path d="M28.4632 51.1992L11.1986 72.1162L19.9924 79.6229L37.257 58.706V49.6323L28.4632 51.1992Z" fill="#FAE58B"/>
</svg>
